<svg width="595" height="674" viewBox="0 0 595 674" fill="none" xmlns="http://www.w3.org/2000/svg">
<g opacity="0.5">
<path fill-rule="evenodd" clip-rule="evenodd" d="M574.567 575.813C609.871 540.694 594.248 484.404 551.043 459.643C518.64 441.072 477.802 453.758 448.596 477.036C435.708 487.308 421.382 495.818 405.974 502.253C369.565 517.457 329.156 520.216 291.018 510.103C252.881 499.989 219.149 477.569 195.058 446.321C170.968 415.073 157.867 376.747 157.79 337.292C157.712 297.836 170.662 259.458 194.629 228.116C218.596 196.774 252.239 174.22 290.337 163.957C328.434 153.693 368.854 156.294 405.322 171.354C420.755 177.728 435.115 186.182 448.044 196.403C477.341 219.566 518.229 232.091 550.559 213.393C593.666 188.462 609.066 132.111 573.624 97.131C542.775 66.6838 506.136 42.2731 465.552 25.5126C396.964 -2.81305 320.943 -7.70377 249.291 11.5997C177.639 30.9031 114.363 73.321 69.2865 132.268C24.2101 191.216 -0.145429 263.395 0.00065332 337.602C0.146735 411.809 24.7863 483.892 70.0944 542.662C115.403 601.431 178.845 643.599 250.573 662.621C322.3 681.642 398.301 676.452 466.777 647.856C507.295 630.936 543.837 606.381 574.567 575.813ZM343.578 454.577C408.747 454.577 461.578 401.747 461.578 336.577C461.578 271.408 408.747 218.577 343.578 218.577C278.408 218.577 225.578 271.408 225.578 336.577C225.578 401.747 278.408 454.577 343.578 454.577Z" fill="url(#paint0_linear)"/>
</g>
<defs>
<linearGradient id="paint0_linear" x1="297.016" y1="0" x2="297.016" y2="673.878" gradientUnits="userSpaceOnUse">
<stop stop-color="#F8F8F7" stop-opacity="0.3"/>
<stop offset="1" stop-color="#F8F8F7" stop-opacity="0"/>
</linearGradient>
</defs>
</svg>
