<?xml version="1.0" encoding="utf-8"?>
<!-- Generator: Adobe Illustrator 19.0.0, SVG Export Plug-In . SVG Version: 6.00 Build 0)  -->
<svg version="1.1" id="Layer_1" xmlns="http://www.w3.org/2000/svg" xmlns:xlink="http://www.w3.org/1999/xlink" x="0px" y="0px"
	 viewBox="0 0 383 434" style="enable-background:new 0 0 383 434;" xml:space="preserve">
<style type="text/css">
	.st0{fill:url(#SVGID_1_);}
	.st1{fill:url(#XMLID_3_);}
	.st2{fill:url(#XMLID_4_);}
</style>
<linearGradient id="SVGID_1_" gradientUnits="userSpaceOnUse" x1="-603.7675" y1="474" x2="-603.7675" y2="40.1271" gradientTransform="matrix(1 0 0 -1 0 434)">
	<stop  offset="0" style="stop-color:#F8F8F7;stop-opacity:0.3"/>
	<stop  offset="1" style="stop-color:#F8F8F7;stop-opacity:0"/>
</linearGradient>
<path class="st0" d="M-425.1,330.7c22.7-22.6,12.7-58.9-15.1-74.8c-20.9-12-47.2-3.8-66,11.2c-8.3,6.6-17.5,12.1-27.4,16.2
	c-23.4,9.8-49.5,11.6-74,5.1c-24.6-6.5-46.3-20.9-61.8-41.1c-15.5-20.1-23.9-44.8-24-70.2c0-25.4,8.3-50.1,23.7-70.3
	c15.4-20.2,37.1-34.7,61.6-41.3c24.5-6.6,50.6-4.9,74,4.8c9.9,4.1,19.2,9.5,27.5,16.1c18.9,14.9,45.2,23,66,10.9
	c27.8-16.1,37.7-52.3,14.9-74.9c-19.9-19.6-43.5-35.3-69.6-46.1c-44.2-18.2-93.1-21.4-139.2-9c-46.1,12.4-86.9,39.7-115.9,77.7
	c-29,38-44.7,84.4-44.6,132.2c0.1,47.8,16,94.2,45.1,132c29.2,37.8,70,65,116.2,77.2c46.2,12.2,95.1,8.9,139.2-9.5
	C-468.4,366.2-444.9,350.4-425.1,330.7z M-573.8,252.7c42,0,76-34,76-76c0-42-34-76-76-76c-42,0-76,34-76,76
	C-649.8,218.7-615.7,252.7-573.8,252.7z"/>
<g id="XMLID_1_">
	<linearGradient id="XMLID_3_" gradientUnits="userSpaceOnUse" x1="4.7603" y1="217" x2="378.2397" y2="217">
		<stop  offset="0" style="stop-color:#F8F8F7;stop-opacity:0.3"/>
		<stop  offset="1" style="stop-color:#F8F8F7;stop-opacity:0"/>
	</linearGradient>
	<path id="XMLID_32_" class="st1" d="M191.7,405C95.4,405.8,5.5,329.7,4.8,218.8C4,101,95.2,28.8,191.7,29
		c95.8,0.1,187,71.5,186.5,189.5C377.7,329.1,288.2,405.6,191.7,405z M354.7,234.4c0-88.2-72.2-160.3-160.5-160.3
		C106.6,74.2,34,146.6,34,234.1c0,88.4,71.9,160.3,160.4,160.3C283.3,394.4,354.7,323.2,354.7,234.4z"/>
	<linearGradient id="XMLID_4_" gradientUnits="userSpaceOnUse" x1="89.4065" y1="217.4952" x2="292.7267" y2="217.4952">
		<stop  offset="0" style="stop-color:#F8F8F7;stop-opacity:0.3"/>
		<stop  offset="1" style="stop-color:#F8F8F7;stop-opacity:0"/>
	</linearGradient>
	<path id="XMLID_28_" class="st2" d="M290.7,277c0,12.3,0,24.5,0,37.3c-2.1,0.4-4,1-5.8,1c-20.3,0.1-40.6-0.1-60.9,0.1
		c-5.5,0.1-7.9-1.8-7.3-7.3c0.1-1.4,0.1-2.8,0-4.2c-1.7-15.4,1.5-26,16.3-36.7c37.5-27,38.4-87,4.4-118.5
		c-36.1-33.5-91.8-18.2-108.7,29.7c-13.6,38.6,2.9,81.4,35.9,97.5c1.9,0.9,4.2,3.5,4.3,5.4c0.4,10.9,0.2,21.9,0.2,34.1
		c-13.9,0-27.1,0-40.2,0c-12.9,0-25.8,0-39.5,0c0-14,0-27.3,0-41.6c2,2.6,4,4.3,4.9,6.4c5.8,13.3,15.9,17.4,29.8,15.5
		c7.8-1,15.8,0.1,23.6-0.4c2.6-0.1,5.1-2.1,7.6-3.3c-2-2.3-3.6-5.1-6.1-6.7c-10.1-6.6-21.7-11.4-30.4-19.4
		c-34.9-32.3-34.3-84.5,0.2-118.1c41.4-40.2,115.8-37.1,153.6,6.4c31,35.7,25.5,85.1-13.5,116.3c-7.2,5.7-15.8,9.6-23.5,14.8
		c-2.2,1.5-3.5,4.3-5.2,6.6c2.5,1.2,5,3.4,7.5,3.4c11.3,0.4,22.6-0.2,33.8,0.3c6.9,0.3,11.3-1.6,13.3-8.6c1-3.6,3-7,4.6-10.5
		C290,276.8,290.3,276.9,290.7,277z"/>
</g>
</svg>
