<?xml version="1.0" encoding="utf-8"?>
<!-- Generator: Adobe Illustrator 19.0.0, SVG Export Plug-In . SVG Version: 6.00 Build 0)  -->
<svg version="1.1" id="Layer_1" xmlns="http://www.w3.org/2000/svg" xmlns:xlink="http://www.w3.org/1999/xlink" x="0px" y="0px"
	 viewBox="106 -120 595 674" style="enable-background:new 106 -120 595 674;" xml:space="preserve">
<style type="text/css">
	.st0{fill:url(#XMLID_3_);}
	.st1{fill:url(#XMLID_4_);}
</style>
<g id="XMLID_1_">
	<linearGradient id="XMLID_3_" gradientUnits="userSpaceOnUse" x1="110.5" y1="217" x2="696.5" y2="217">
		<stop  offset="0" style="stop-color:#F8F8F7;stop-opacity:0.3"/>
		<stop  offset="1" style="stop-color:#F8F8F7;stop-opacity:0"/>
	</linearGradient>
	<path id="XMLID_32_" class="st0" d="M403.8,512c-151,1.2-292.1-118.2-293.3-292.2c-1.2-184.9,141.9-298,293.4-297.9
		c150.3,0.2,293.4,112.2,292.6,297.3C695.7,392.9,555.2,512.9,403.8,512z M659.5,244.3c0-138.5-113.2-251.6-251.8-251.5
		c-137.6,0.1-251.4,113.8-251.4,251c0,138.8,112.8,251.5,251.6,251.5C547.5,495.3,659.5,383.6,659.5,244.3z"/>
	<linearGradient id="XMLID_4_" gradientUnits="userSpaceOnUse" x1="243.3123" y1="217.777" x2="562.3276" y2="217.777">
		<stop  offset="0" style="stop-color:#F8F8F7;stop-opacity:0.3"/>
		<stop  offset="1" style="stop-color:#F8F8F7;stop-opacity:0"/>
	</linearGradient>
	<path id="XMLID_28_" class="st1" d="M559.1,311.2c0,19.3,0,38.5,0,58.5c-3.3,0.6-6.2,1.5-9.2,1.5c-31.8,0.1-63.7-0.2-95.5,0.2
		c-8.7,0.1-12.4-2.9-11.5-11.5c0.2-2.2,0.2-4.4,0-6.6c-2.7-24.2,2.4-40.9,25.6-57.6c58.9-42.4,60.2-136.5,7-186
		c-56.6-52.5-144-28.5-170.5,46.7c-21.3,60.5,4.5,127.7,56.4,152.9c3,1.5,6.6,5.5,6.7,8.4c0.6,17.1,0.3,34.3,0.3,53.4
		c-21.9,0-42.5,0-63.1,0c-20.3,0-40.5,0-62,0c0-22,0-42.8,0-65.2c3.2,4.1,6.2,6.8,7.7,10.1c9.1,20.8,24.9,27.3,46.8,24.3
		c12.2-1.6,24.8,0.1,37.1-0.6c4.1-0.2,8-3.3,11.9-5.1c-3.1-3.6-5.7-8.1-9.5-10.6c-15.8-10.3-34.1-17.8-47.7-30.4
		c-54.7-50.6-53.9-132.6,0.3-185.3c65-63.1,181.7-58.2,241,10.1c48.7,56,40,133.6-21.2,182.4c-11.3,9-24.8,15.1-36.9,23.2
		c-3.5,2.3-5.5,6.8-8.2,10.3c3.9,1.9,7.8,5.3,11.8,5.4c17.7,0.6,35.4-0.3,53.1,0.5c10.8,0.5,17.7-2.5,20.8-13.4
		c1.6-5.7,4.8-10.9,7.2-16.4C558,310.8,558.6,311,559.1,311.2z"/>
</g>
</svg>
